<?xml version="1.0" encoding="utf-8"?>
<!-- Generator: Adobe Illustrator 17.1.0, SVG Export Plug-In . SVG Version: 6.00 Build 0)  -->
<!DOCTYPE svg PUBLIC "-//W3C//DTD SVG 1.1//EN" "http://www.w3.org/Graphics/SVG/1.1/DTD/svg11.dtd">
<svg version="1.1" id="Layer_1" xmlns="http://www.w3.org/2000/svg" xmlns:xlink="http://www.w3.org/1999/xlink" x="0px" y="0px"
	 viewBox="0 0 841.9 595.3" enable-background="new 0 0 841.9 595.3" xml:space="preserve">
<g opacity="0.05">
	<path d="M596.1,546.4c-12.8-36.3-14.1-77-1.9-113.5c12.1-36.7,38-67.7,69.9-89.3c15.9-11.2,33.1-19.4,50.9-28
		c1.7-0.9,3.5-1.8,5.2-2.7c35-12.3,67.9-30.5,96.4-54.7c29-24.6,52.3-57.6,60.9-95.6c-0.1,0,5.1-12.4,6.4-25.7
		c1.3-13.3-1.2-26.4-7.9-25.3c-7.1,1.1-6.6,13.3-6.2,25.5c0.2,12.2,0.3,24.9,0.3,25c-7.2,36.2-28.6,68.7-56.3,93.7
		c-26.9,24.3-58.7,43.3-92.8,56.7c15.4-8.1,30.4-17,44.7-27c32.1-22.6,60.8-51.5,79.1-87c17.6-35.1,26.5-77.2,13.2-116.1
		c-9.2-27.2-29.3-47.5-53.7-59.7c-0.8-2.7-2.8-4.4-2.7-4.4c-6.5-5.2-7.9-14-7.7-14.5c-4.6,2-6.6,7.5-6.2,12.1
		c-16.1-5.3-33.3-7.5-50.1-6.3c-2.2-1.4-3.6-2.7-3.5-2.7c6.6,0.6,15.5,2.3,15.5,2.3c-2.2-3.5-7.8-5.1-7.7-5.2
		c-13.8-4.4-23-11.8-23-12.2c-1.1,8.1,4.9,15.6,9.9,18.8c-27,3.9-52.4,16.7-69.8,39.6c0.2,0-9.7,10.3-16.9,30.1
		c-7,19.6-8.5,49.4,5,75.4c13.5,26.1,41.9,40.8,63,41.6c21.5,1.3,33.8-6.5,32-9.2c-1.7-3.6-14.8-0.2-32.9-4
		c-17.9-3.3-40.7-16.4-51.3-38.6c-11.1-21.8-10.6-48.7-4.5-66.3c5.6-18.2,14.7-28,14.4-28.1C696.4,15.6,748.3,8,790.6,23.6
		c1.7,2.3,3.3,3.2,3.3,3.2c3.7,1.9,6.4,1.7,7.7,1.5c24.3,11.8,44.1,31.9,52.2,59.2c9.2,29.4,5.5,61.4-5.3,90.4
		c0.3-1.1,0.7-2.2,1-3.4c11.2-36-4.6-72.6-26.1-84.6c-21.3-12.5-37.6-8.4-37.1-8.8c-0.5,0.4,16-2.6,36.1,10.4
		c20.2,12.5,34.2,47.4,23.5,82.1c-8.9,28.5-23.1,51.2-36.7,68.1c-9.6,10.7-20.1,20.7-31.4,29.7c9.5-8.4,18.6-17.3,26.9-27
		c11.7-13.9,22.2-29.1,28.6-46.5c6.4-16,14.3-34.1,12.5-53.1c-1.5-19.2-12.8-36.2-27.9-47.4c-15.8-11-37.7-12.3-54.8-3.2
		c-17.1,8.2-29.9,28.2-26.1,48c2.4,19.2,20.1,37.6,41.4,35.2c-0.1-0.1,7.2,0.8,16.7-4.3c9.4-4,20.4-18.8,16.9-34.5
		c-2.3-15.6-19.4-26.8-31.4-23.4c-12.1,2.5-14.8,11.2-12.1,12.6c2.9,2.3,7.8-0.6,14.3,0.2c6.3,0.2,13.7,5.9,15.6,15.1
		c2.3,9.1-3.5,18.2-10.2,22.4c-6.5,4.4-12.5,4.7-12.4,4.9c-16.6,1-31-14.3-32.6-30.9c-2.6-16.9,8.1-33.9,23.9-41.1
		c15.4-7.8,35.1-6.7,49.3,3.6c13.9,10.4,24.7,26.4,25.9,44.2c1.6,18-5.7,35-11.8,51.6c-6.1,16.9-16.2,32.1-27.5,45.9
		c-12.7,15.3-27.2,28.8-42.8,41.1c-30.8,23-68,35.3-99.3,57.6c-31.7,22.3-57.3,54-69,91.1c-11.7,37-9.9,77.6,3.3,113.8
		c9.6,26.4,25.3,52,46.9,70l0.2-0.2C620.9,598.8,605.4,573,596.1,546.4z"/>
	<path d="M649.7,343.4c0-0.1,16.6-11.3,32.9-20.4c20.3-11.3,33.5-15.2,31.9-18.5c-3.2-6.5-22.4-1.1-39.5,9.4
		c-17.4,10.2-31.3,24.6-31.2,24.6c-90.3,66.4-91.8,217.6-6.8,283.7l0.3-0.3C553.6,553.8,560.4,404.4,649.7,343.4z"/>
	<path d="M836.4,148.8c-0.3-4.1-4.1-6.9-8.2-6.2c-4.1,0.7-7,3.9-6.8,7.2s3.5,6.1,7.6,6.2C833.2,156.1,836.6,152.9,836.4,148.8z"/>
	<path d="M816.5,115.3c-3.5,3.6-5,8.1-3.2,11.2c1.7,3.1,6.7,4.6,11.4,2.9c4.8-1.7,7.2-7.2,4.5-12C826.5,112.6,820,111.6,816.5,115.3
		z"/>
	<path d="M832.6,176.9c0.7-3.1-1.6-6.2-4.9-6.7c-3.3-0.5-6.4,1.3-7,4c-0.7,2.8,1.4,5.7,4.7,6.6C828.6,181.8,831.8,180,832.6,176.9z"
		/>
	<path d="M819.9,196.8c-2.4-1-5,0-5.9,2s0.2,4.6,2.6,5.7c2.3,1.1,5.1,0.2,6.1-1.9C823.5,200.3,822.3,197.7,819.9,196.8z"/>
	<path d="M811.6,223c1-1.9,0.2-4.3-1.8-5.4c-2-1.1-4.5-0.6-5.5,1.2s-0.3,4.2,1.7,5.4C808,225.3,810.6,224.9,811.6,223z"/>
	<path d="M799.9,240.1c1-1.5,0.5-3.5-1.1-4.6s-3.7-0.8-4.7,0.6c-1,1.4-0.5,3.4,1.1,4.6C796.8,241.8,798.9,241.6,799.9,240.1z"/>
	<path d="M787.9,256c1.1-1.2,0.9-3.2-0.5-4.4s-3.4-1.2-4.4,0c-1.1,1.2-0.9,3.1,0.5,4.4C784.8,257.2,786.8,257.2,787.9,256z"/>
	<path d="M704.7,61.5c3.9,5.1,7.2,7.3,7.2,7.3c-3-19-3.8-31.1-3.1-30.5c-0.4-4.7,1.9-8.2,1.7-8.4c-6.5,3.9-7.8,14.5-7.8,14.5
		c-1.7-3.5-1.9-8.9,0.3-12.8c2.3-3.8,5.4-5.1,5.3-5.3c-5.6-1.7-11.7,9-10.6,9C695.2,48.4,701.3,56.4,704.7,61.5z"/>
	<path d="M680.7,13.8c6.2,5.1,10.4,2.4,11.1,2c-9.4-0.1-9.2-11.3-8.7-10.3c3.4,5.3,8.8,6.2,9,6.2c-1.7-3.6-2.2-4.5-2.4-4.8
		c-3.4-7.2-6.5-20.4-6.8-19.8c-4.7,5.5-6.5,12.1-6,17.5C677.5,10.1,680.8,13.9,680.7,13.8z"/>
	<path d="M603.9,546c-11.7-33.6-17.3-80.3,3.4-123.9c20.8-43.5,65.7-77.3,116.6-97.8c53.1-16.9,100-46.1,132.6-82.1
		c33.1-35.9,49-79.2,51.6-115.6c2-19.3,0.4-36.7-3-51.4c0.1,0.1,0.2,0.2,0.1,0.2c-1.8-10.5,6.8-19.4,6.8-19
		c0.1,8.4-0.6,18.6-0.5,18.8c4.5-3.2,6-9.2,6.2-9.3c5-15.6,9.7-31.5,9.6-31.6c-19.2,4-25.5,22.3-26.2,26.5
		c-2.4-7.1-5.2-13.2-8.1-18.4c-10.3-18.1-21.9-22.7-21.4-22.9c-0.5,0.2,11.1,5,20.9,23.2c3.1,5.9,6.2,13.1,8.7,21.4
		c0.3,3.9,1.3,6.7,2.3,8.5c2.2,9.4,3.7,20,4,31.4c-0.4-1.6-1.2-2.5-1.2-2.5c-6.5-6.8-17.2-4.3-17.2-4.3c-1.1,14.7,6.5,17.7,6.5,17.7
		c4,0.8,7.7-1.3,7.7-1.3c-4.2-1.4-5-8-5-8c5-0.6,8.9,3.1,8.9,3.1c0.2-0.5,0.3-1,0.4-1.5c0,6.1-0.3,12.4-1.1,19
		c-3.1,36.1-19.2,78.5-52.1,113.7c-32.6,35.3-78.7,63.9-131.7,80.8c-51.6,20.8-97.1,55.2-118.1,99.9c-20.8,44.9-14.5,92-2.3,125.9
		c11.9,31,30.3,52.1,45.1,65.6l0.5-0.5C633.2,598.1,615.3,576.8,603.9,546z"/>
	<path d="M863.9,26.6c10.1,5.3,16.9,5.2,16.9,5.2c-11.6-6.3-20.2-19-20.2-19c10.9,3.9,23.7,14,23.7,13.9c-1.1-6.5-9.7-13.5-9.7-13.5
		c-21.9-18.3-43.9-24.9-44-24.9C842.8,13.5,863.9,26.7,863.9,26.6z"/>
	<path d="M638.3,392.4c58-65.8,160.3-61.1,222.8-127.8c-0.1,0,22.8-19.4,39.3-44.7c17.8-24.7,23.1-56.5,15.6-56.5
		c-6.7-0.1-13.1,26.5-28.8,50.8c-14.5,24.6-33.3,47.1-33.2,47.1c-58.6,63.5-161.3,61.3-219.4,129.6c-27.9,33.2-38.4,79.1-31,121.1
		c6.5,35.5,25.6,67.6,50.8,93l0.2-0.2c-24.9-25.8-43.5-58.4-49.3-93.7C598.8,469.4,610.1,424,638.3,392.4z"/>
	<path d="M918.4,210.1c-0.7-0.7-9.3,27.6-41.6,58.9c-16.1,15.5-38.3,30.6-65.1,43.2c-26.5,13.2-58,22.2-90.1,35.3
		c-31.9,12.7-62.3,29.4-81.6,53.6c-19.7,23.1-30.3,50.3-29.8,73.4c-0.2,46,14.2,71.7,13.4,71.7c0.8,0.1-11.8-26.6-9.7-71.5
		c0.5-22.5,11.3-47.5,30.9-69.6c18.9-22.6,47.9-38.1,79.6-50.8c31.6-12.9,63.3-22.5,90-36.6c26.9-13.4,49.2-29.7,64.9-46.1
		C910.9,238.3,917.6,209.4,918.4,210.1z"/>
	<path d="M897,13.6c0.6,6.7-3.8,14-3.8,14c5.3,0,8.4-5,8.4-5C909.5,10,907-3.8,907-3.8c-16.8,6-20.5,18.4-20.5,18.4
		c-1,6,1.3,10.2,1.3,10.2C889.3,18.2,897,13.6,897,13.6z"/>
	<path d="M877.9,39.3c-3.8-3.1-6.9-1.6-6.9-1.6c-7.9,3.8-8.4,14.4-8.4,14.4c13.2,5.9,18-0.2,18-0.2c1.7-3.4,0.9-7.5,0.9-7.5
		c-2.3,3.5-8.7,2-8.7,2C873.5,41.6,877.9,39.3,877.9,39.3z"/>
	<path d="M682.3,41.9c-5.1-2-10.2,4-9.9,4.1c-5.5,8.2-3.4,17.2-0.7,21.5c2.8,4.6,5.9,6.1,5.9,6.2c7.4-15.5,9.8-18,9.6-19
		c-0.1-3.6-0.7-8.1-0.7-8.1c-2.8,4.2-9.1,8.1-9.1,8.6C674.9,48.4,682.4,41.5,682.3,41.9z"/>
	<path d="M671.1,31.7c4.8-2.2,5.8-6.7,5.8-6.6c-4.8,2.7-10.1-2.3-9.9-2.4c3.8-3.2,8.2-3.6,8.3-3.6c-2.6-4.4-4.8-4.4-4.9-4.6
		c-6.8-0.1-14.4,2.8-15.8,6.1C658.9,32.3,671.5,32.7,671.1,31.7z"/>
	<path d="M759.1,106.3c-2.3,8.1,5.6,11.2,5.4,10.9c6.4-7,5.9-8,5.8-8.4c-1-1.4-2.9-3.3-2.9-3.3c0.1,2-3.3,3.9-3.2,4.1
		c-2.4-2.4-0.5-6.1-0.5-6C760.3,103.2,758.9,106.3,759.1,106.3z"/>
	<path d="M862.7,514.2c15.3-59.6-26.8-121.6-82.3-140.3c-56-19.3-124.5,6.9-149.7,60.7c-26.9,53.6-5.7,119,35.3,158.8l0,0
		c-40.8-40.5-61-106.3-33.2-158.8c25.9-52.6,94.2-77,148.1-56.6c53.8,19,92.8,81.7,75.8,137c-8.8,26.9-32.2,48.5-59.8,54.8
		c-27.3,8-58.1-4.9-71.1-29.8c0.2,0-4.7-8.5-5.7-22.3c-1.4-13.2,5.8-31.4,20.8-40c15-9.4,32.9-6.9,41.6,2
		c9.6,7.9,10.9,17.7,14.8,16.7c2.9,0,5.8-13.9-7.3-27.5c-12.2-14.4-41.8-16.3-59.6-1.3c-19.2,13.8-24.4,39.4-19.9,54.9
		c3.6,15.8,10.9,24.1,10.6,24.1c15.9,26.9,51.5,38.5,80.2,28.5C830.7,567.1,854.4,543.1,862.7,514.2z"/>
	<path d="M863.8,433c-25.4-51-78.3-72.6-113.4-72.7c-36.4-0.6-55.8,13.3-55.7,12.4c-0.1,0.9,20.3-11.2,55.5-8.7
		c34.1,2,83.3,24.4,107,72.3c23.5,47.5,9.2,102.3-17,124.6c-26.6,23.2-51.1,23.5-50.4,24c-0.7-0.6,23.8,1.4,52.8-21.2
		C871.4,541.6,888.9,483.9,863.8,433z"/>
	<path d="M774.1,391.3c2.6-5.7-0.4-12.6-7.2-14.7c-6.9-2-13.5,2.1-14.2,8.3c-0.7,6.1,2.6,11.7,7.6,13.2
		C765.3,399.7,771.5,396.9,774.1,391.3z"/>
	<path d="M815.1,419.5c5.5-5.3,4.9-14.6-1.6-19.7c-6.5-5.2-15.5-3.8-19.6,2.6c-4.1,6.3-2.9,14.5,2.3,18.8
		C801.6,425.4,809.6,424.8,815.1,419.5z"/>
	<path d="M722.2,396.5c4.7-1,7.8-5.8,6.9-10.7c-0.9-5-5.8-8.3-10.9-7.1c-5.2,1.2-8.2,6.3-6.8,11.1
		C712.7,394.6,717.5,397.5,722.2,396.5z"/>
	<path d="M675.5,396.8c-3.7,1.9-4.6,6.6-2.5,9.8c2.2,3.2,6.2,4.1,9.4,2.5c3.1-1.8,4.3-6,2.7-9.5C683.4,396,679.1,394.7,675.5,396.8z
		"/>
	<path d="M645.3,422.9c-2.3,2.9-1.9,7,1,9s6.8,1.6,8.8-0.9c1.9-2.6,1.7-6.4-0.8-8.8C651.8,419.8,647.5,419.9,645.3,422.9z"/>
	<path d="M638.5,458.2c0.8-2.6-0.5-5.6-3.1-6.7c-2.7-1.2-5.9,0.1-6.8,3c-1,2.9,0.4,5.9,3.2,6.8C634.6,462.1,637.6,460.8,638.5,458.2
		z"/>
	<path d="M627.1,483.1c-2.7-0.6-5.3,1.1-5.8,3.8c-0.6,2.7,1.2,5.3,3.8,5.8c2.7,0.4,5.3-1.3,5.8-3.9
		C631.5,486.3,629.7,483.7,627.1,483.1z"/>
	<path d="M767.9,357.5c-24.3-3-39.3,1.1-39.2,1c-0.1,0.1,15.1-3,38.9,0.8c23.7,3.4,56,16.9,80.1,44.8c25,27.3,32.1,62.1,30.9,85.8
		c-0.9,24.2-6.7,38.5-6.3,38.5c-0.4,0,6.3-14,8.1-38.4c2.2-23.9-4.2-60.2-30-88.4C825.7,373,792,360,767.9,357.5z"/>
	<path d="M894.9,415.1c-0.3,0.2-2.3-9.8-11.6-23c-7-10.5-19.9-21.8-36.6-29.6c3.1-4,4.4-10.6,4.4-10.6c-10.7-7.9-16.7-1.5-16.7-1.5
		c-0.9,2.7,0.2,6.6,0.2,6.6c1.4-2.7,6.4-0.1,6.4-0.1c0,1.2-0.2,2.1-0.6,2.8c-2.6-1-5.3-2-8.1-2.8c-4.6-1.4-9-2.5-13.4-3.4
		c3.7-4.3,4.5-10,4.5-10c-12.7-6.9-18.1-1.2-18.1-1.2c-2,3.3-1.5,7.5-1.5,7.5c2.7-3.3,8.9-1.4,8.9-1.4c-0.3,1.4-1,2.6-1.7,3.5
		c-37.8-6.3-66.5,1.1-66.1,0.6c-0.3,0.4,27.2-3.9,62.8,2.3c-0.4,0.2-0.7,0.4-0.7,0.4c3.6,3.4,6.8,2.1,6.8,2.1
		c0.7-0.3,1.3-0.6,1.8-0.9c5.1,1.1,10.4,2.4,15.7,4c2.5,0.8,4.9,1.6,7.2,2.5c2.9,2.9,4.9,2.2,4.9,2.2c0.1,0,0.2-0.1,0.3-0.1
		c17.1,7.4,30.5,18.1,38.2,28.2C891.7,405.6,894.6,415.3,894.9,415.1z"/>
	<path d="M893.6,405c5.5,7.1,4.5,18.1,4.4,17.9c-5.6-5.6-9.9-14.9-9.9-15c-2.9,4.9-0.3,11.2-0.3,11.2c5.6,15.8,13.5,27.8,13.2,28.2
		c13.3-17,2.1-35.6,2.7-34.7C898.7,406.4,893.6,405,893.6,405z"/>
	<path d="M897.9,388.2c-3.3,3.7-3.6,8.1-3.6,8.1c4.1-3.7,11.6-2,11.6-2c-2.5,5.2-8.8,7.6-8.8,7.6c3.8,3.4,8.2,1.8,8.2,1.8
		c11.2-3.9,15.4-15.5,15.4-15.5C905.9,381.7,897.9,388.2,897.9,388.2z"/>
	<path d="M867.3,374.4c8.4,1.6,19.4-2.4,19.4-2.5c-4.6-15.7-19-15.2-18.7-14.7c-5.9,1.7-7.7,6.5-7.6,6.3c6.1-2.8,12,3.2,11.7,3.1
		c-5,2.6-10.3,2.9-10.4,2.9C864.4,374,867.1,374.3,867.3,374.4z"/>
	<path d="M896.2,276.7c-9.3-10-21.9,14-22.5,14c-30.3,23.1-65.2,40.5-101.8,53.3c37.5-10.6,73.8-25.8,106.5-47.7
		C878.4,296.9,905.9,287.1,896.2,276.7z"/>
	<path d="M756.7,85.2c-6.8-0.1-11.2,6.2-11.2,6.2c6.9,7.4,12.4,5.2,12.4,5.2c2.5-1.6,3.4-4.3,3.4-4.3c-2.9,1.4-6.7-1.4-6.7-1.4
		c2.3-2.7,6.2-2.8,6.2-2.8C759.3,85.2,756.7,85.2,756.7,85.2z"/>
</g>
<g opacity="5.000000e-002">
	<path fill="#231F20" d="M1017.4,356c-10-48.8-54.4-83.6-96.8-81.8c-8.6,0.3-16.8,1.9-24.4,4.6c-7.1-2.7-7.1-15.2-7.1-15.2
		c6.6,7.5,18.3,1.1,18.3,1.1c-6.3-10.2-16.5-2.8-15.2-6.3c1.2-3.5,6.1-3.2,6.1-3.2c14.4,0.4,9.5-17.9,9.5-17.9
		c-30.7,14-19.6,36.5-15.5,43.1c-27.9,11.6-46.8,37.9-48.8,63c-2.8,34.2,21.5,59.4,43.3,65.6c23,6.6,41.2-4,49.1-12.4
		c8.5-8.8,10-15.4,10.3-15.2c-0.3-0.2-1.9,6.4-10.5,15c-8,8.3-26.2,18.4-48.6,11.6c-21.3-6.3-44.6-31.4-41.4-64.3
		c2-21.1,16.4-42.9,37.8-55.3c-44.8,40.6-23.9,74.1-23.9,74.1c10.1,16.8,22.1,18.2,27.2,14.5c4.3-3.1,10.8-5.9,10.8-5.9
		c-17.4-11.3-15.7-3.2-30.8-9.8c-15.1-6.6-1.4-25.1-1.4-25.1c-0.1,18.3,16.5,13.5,16.5,13.5c-24-23.3-4.3-52.2,5-63.2
		c10-5.2,21.5-8.4,33.8-8.6c40.3-1.4,82.9,32.6,91.9,79.2c7.7,34.8-6.7,73.1-34.1,100.2c-6.2,3.1-12.9,4.9-16.1,0.6
		c0,0-3.7,3-1.5,5.1c0,0-23.5-3.1-13.9-25.5c0,0-7.2,0-9.4,10c0,0-6.7-5.8-2.2-12.6c4.4-6.8,7.6-11.2,7.6-11.2s-9.9,0.3-12.2,9.3
		c0,0-0.6-9,6.4-12s8.2-13.7,2.9-19.3c0,0-29.4,15.3-8,48.6c10.4,16.2,22.8,20.1,33.8,17.8c-6.2,4.7-12.8,8.9-19.9,12.5
		c-12.2,6-25.6,10.3-39.4,12.4c-4.7-0.6-9.7-1.9-14.5-4.3c-16.3-9.1-28-27.5-25.7-47.6c-0.5-2.5-5.6-8-8.1-7.4
		c-12.1,6.2-13.6,24.9-3.1,32.6c-17.6-11.2-27-36.1-16.2-55.9c-9,0.6-17.9,7.7-15.8,17.7c-11.6-11.9-15.8-31.9-4-43.5
		c18.8-22.2,20.1-40.7,19.8-66.8c-51.4,16.1-47.1,79.7-20.2,114.4c-13.6-8.9-24.6,0.6-30.5,16.2c6-2.6,11.4-14.1,17-6.2
		c2,3.5-3.9,12.6,1.2,18c22-24.2,48.5,21.9,76.3,34.1c-5.3-0.2-10.5-0.7-15.8-1.7c-27.3-4.5-53.7-17.8-77.7-34.1
		c-41.2-28.1-76.5-66.8-104.5-111.3c-2.9-8.9-1.9-12.9-1.9-12.9c17.4-6.9,19.2-29.5,19.2-29.5c-18.5-1.3-22.1,19-22.1,19
		c-7.3-17.7,2-46.1,2-46.1c5.7,17.7,31.5,5.4,32.9-3.3c1.4-8.8,9.8-7.6,9.8-7.6c-7.8-7.8-20.3-1.9-28.6,5.1s-9.4-1.3-9.4-1.3
		c1.3-11,22.3-25.9,22.3-25.9c11.4,21.4,37.7,11.6,37.7,11.6c-7.5-20-30.6-15.1-30.6-15.1c13.8-10.4,26.8-10.5,26.8-10.5
		c-1.1,16.5,22.1,21.4,26.6,16.2s11.9,4,11.9,4c-0.7-15.5-16.6-18.3-25.1-18.5s-2.1-5.1-2.1-5.1c37.7-8.3,48.5,27.1,48.5,27.1
		c-10.9,10.1-11.1,23.6-6.5,28.8c4.6,5.1,7.8,16.6,7.8,16.6c34.8-36.9-17.7-117.1-96-59.7c-39.2,28.7-41.7,62.1-34.4,88.2
		c-0.9-1.6-1.8-3.2-2.7-4.8c-30-54.6-48.6-113.2-60.1-170.8c-1.4-6.3-2.5-12.7-3.5-19.2c2.3-13.5,10.6-23.3,10.6-23.3
		c2.6,8.1,17.6,3.2,19.5-0.2c1.9-3.4,7.8-2.1,7.8-2.1c-6.1-11.5-20.4-1.8-19-3.4s10.7-9,23.2-4c8.5,3.4-0.7,15.5-0.7,15.5
		c13.6-0.5,12.4-12.4,12.4-12.4c8.2,9.7,4.2,18.5,4.2,18.5c-10.7,0.9-13,9.5-13.5,12.4s-3,4.5-3,4.5c24.6,1.3,25.4-37.8,3.6-44.6
		c-31.7-9.8-43.4,17-47,28.6l0,0c4.4-25.8,25.6-67.6,55.4-72c35.4-5.3,54.4,37.2,39.4,47.5S671,89.9,671,89.9
		c1.4,18.8,36.6,24.2,43.4-3.3c6.8-27.5-22.4-41-22.4-41c2.2-0.1,5.1-3.7,5.1-3.7c-21-12.3-37.7-5-41.7-2.9
		c4.1-2.8,7.6-11.7,7.6-11.7c-47.1,19.6-57.1,64.5-59.2,86.4c-2.8-15.9-6.5-31.5-13.9-46c-12.1-26.3-33.5-48.6-60-58.2
		C477.6-8.6,416,9.8,390.9,53.9c-26.2,42.3-19.6,97.4,10.9,126.8c30.6,29.4,73.5,34.1,104.4,24.5c32-10.3,50.2-37.2,54.2-59.7
		c4.7-23-3.2-41.1-10.1-50.7c-1.9-2.6-3.7-4.7-5.4-6.5c-0.3-1.3-6.5-29.5-42.1-20.9c0,0,7,1.3,7.6,4.1c0.6,2.8,15.4,23.2,34.4,16.9
		c1.6,1.8,3.3,3.9,5.2,6.5c6.6,9.7,14.2,27.6,9.2,50.3c-4.3,22-22.5,48.2-53.8,57.8c-30.2,9-72.3,3.7-101.2-24.8
		c-28.9-28.5-34.7-81.6-9.3-121.8c2.2-3.9,4.8-7.5,7.6-11c9.5-7.3,25.3-13.8,43.5,1.5c29.6,25-12.6,53.5-25.6,31
		c0,0-11,5.4-4.3,16.6s57.3,13.4,49.3-34.3c-4.2-25.4-37.6-30.2-57.3-20.9c28.6-29.1,77.7-39.1,120-23.9
		c24.9,9.2,44.8,30.1,56.3,55.3c12.9,25,13.7,54.3,19.9,83.5c4.8,24.2,10.8,48.7,18.4,73c-8.5-12.3-25.5-29.3-52.4-22.2
		c-42.8,11.3-22.2,52.3-9.8,50.3c0,0-6.8-7.7-4-12.6c2.9-5,2.9-15-2.5-18.2c0,0,3.7-9,12.8-9.2s-7.8,9.3,2.6,19.7
		c0,0,17.1-11.9,6.9-23.8c0,0,13.9-7.1,26.3,2.1c12.4,9.1-12.9-0.5-14.9,14c0,0,8-4.1,11.1,0.1c3,4.1,17.2,3.3,18.5-0.9
		c0.7-2.1,3.7,1.1,6.5,4.8c10.5,32.6,23.8,64.9,40.9,95.9c11.3,20.7,24.2,40.4,38.4,58.7c-34.2-30.5-95.2-71.7-154-46
		c-88.3,38.6-63.7,159.5,24.6,153.9c0,0,17.3-2.3,10.3-17c-7-14.6-16.1,6-31,3.5s-62.4-12.7-50.6-80.4c0,0,11.8-41.3,50.2-54
		c0,0-24.2,19.8-9.6,34.6c0,0-0.8-7,6.3-8.8s28.1-15.1,26.7-31c0,0,11.3-9.9,39.7,1.1c0,0-18.9-4.8-28.5,5.7
		c-9.5,10.5-6.3,19.6-19,24.2c0,0,24.8,6.5,36.1-9.9c11.2-16.4,21.8-17,31.5-12.8c0,0-14.5,1.3-23.6,21.9c0,0,22.9-23.1,53.7-3.1
		c0,0-13.7-5.4-25.4,7.5c0,0,33.9,14.6,47.5,8.7c0,0-22.2,11.4-11.1,24.7c0,0,15.2-20.5,40.5-5.6c19.9,22.9,42.1,43.1,66.4,59.8
		c-30.2-10.3-79.2-10.4-100.7,53c0,0-11.9,11.6-1.6,29.7c0,0,1.4-10.4,7.8-12.7c6.4-2.3,8.5-11.1,3.9-31.4c0,0,9.4-24.6,22.5-27.3
		c0,0-16.1,18.1-9.9,30.1c0,0,19.4-10.2,22-38.1c0,0,8-4.5,13.2-4.3c5.3,0.2-13.2,16.9-11.2,29.5c0,0,29.5-10,20.9-30.7
		c0,0,18.2-0.3,38.5,5.9c23.7,15.5,49.4,27.9,76.9,32.4c28.8,4.9,58.1-0.8,82.8-13.2C998.2,460.8,1028.7,405.2,1017.4,356z"/>
	<path fill="#231F20" d="M583.3,42.1c-1.4,3.4,3.4,28.3,20,37.8c0,0,15.4-26.6-21.1-47.4C582.2,32.5,584.7,38.7,583.3,42.1z"/>
	<path fill="#231F20" d="M636.5,38.8c11.9-8.4,8.7-31.5,8.7-31.5s-0.3,7.9-7.3,10.3c-7,2.5-28.8,13.6-23.3,47.8
		C614.6,65.5,624.6,47.2,636.5,38.8z"/>
	<path fill="#231F20" d="M608.8,53.9c0,0,10.5-29.4-8.9-43.1c0,0,1.4,7.7-1.6,11.2C595.4,25.5,591.7,37.8,608.8,53.9z"/>
	<path fill="#231F20" d="M423.9,29.7c20.1,10.9,40.3-3.1,40.3-3.1C442.2,14,423.9,29.7,423.9,29.7z"/>
	<path fill="#231F20" d="M544.7,90.8c0,0-11.7-1-19.2,9.7C525.4,100.5,536.9,104.5,544.7,90.8z"/>
	<path fill="#231F20" d="M672.1,356.6c0,0-4.6-37.1-32-35.2s-25.5-10.5-25.5-10.5S598.3,327.8,672.1,356.6z"/>
	<path fill="#231F20" d="M573,324.6c16.8,10.6,38.9,3.1,38.9,3.1C588.9,311.3,573,324.6,573,324.6z"/>
	<path fill="#231F20" d="M733.4,441c0,0,7.2,14.8,24.9,11.9C758.3,452.9,749,435.8,733.4,441z"/>
	<path fill="#231F20" d="M664.7,302.6c11.9-22,0.7-36.3,0.7-36.3C647.7,286.8,664.7,302.6,664.7,302.6z"/>
	<path fill="#231F20" d="M887.8,279.1c-16.4-11.2-31.1,0.2-31.1,0.2C869.9,290.8,887.8,279.1,887.8,279.1z"/>
	<path fill="#231F20" d="M883.9,273.6c0,0,1-9-8.1-13.1C875.8,260.4,874.7,269.1,883.9,273.6z"/>
</g>
</svg>
